<svg width="36" height="37" viewBox="0 0 36 37" fill="none" xmlns="http://www.w3.org/2000/svg">
<rect y="0.5" width="36" height="36" rx="18" fill="#F4F4F6"/>
<path d="M25.59 13.19C24.5932 12.9708 23.6914 12.4414 23.0141 11.6779C22.3368 10.9143 21.9188 9.95587 21.82 8.94V8.5H18.37V22.17C18.3707 22.7766 18.1806 23.368 17.8265 23.8604C17.4724 24.3529 16.9723 24.7215 16.3971 24.914C15.8219 25.1065 15.2007 25.1131 14.6215 24.9329C14.0423 24.7527 13.5345 24.3948 13.17 23.91C12.8435 23.4808 12.6435 22.9689 12.5927 22.432C12.542 21.8951 12.6425 21.3548 12.8828 20.872C13.1231 20.3892 13.4937 19.9834 13.9527 19.7003C14.4117 19.4172 14.9408 19.2681 15.48 19.27C15.7783 19.2683 16.075 19.3121 16.36 19.4V15.9C16.0284 15.8589 15.6941 15.8422 15.36 15.85C14.1293 15.8829 12.9349 16.2739 11.9231 16.9753C10.9113 17.6766 10.1259 18.6578 9.6632 19.7986C9.20049 20.9395 9.0805 22.1905 9.31794 23.3986C9.55538 24.6066 10.1399 25.7191 11 26.6C11.8815 27.4962 13.0095 28.1101 14.2407 28.3638C15.4719 28.6175 16.7507 28.4994 17.9147 28.0246C19.0786 27.5498 20.0752 26.7397 20.7777 25.6973C21.4801 24.6548 21.8569 23.4271 21.86 22.17V15.17C23.2515 16.1639 24.92 16.6956 26.63 16.69V13.29C26.2941 13.2914 25.959 13.2579 25.63 13.19H25.59Z" fill="#2F313F"/>
</svg>
