<svg width="24" height="25" viewBox="0 0 24 25" fill="none" xmlns="http://www.w3.org/2000/svg">
<path d="M19.59 7.19C18.5932 6.97079 17.6914 6.44144 17.0141 5.67789C16.3368 4.91435 15.9188 3.95587 15.82 2.94V2.5H12.37V16.17C12.3707 16.7766 12.1806 17.368 11.8265 17.8604C11.4724 18.3529 10.9723 18.7215 10.3971 18.914C9.82187 19.1065 9.20068 19.1131 8.6215 18.9329C8.04232 18.7527 7.53452 18.3948 7.17002 17.91C6.84347 17.4808 6.64351 16.9689 6.59275 16.432C6.542 15.8951 6.64247 15.3548 6.8828 14.872C7.12314 14.3892 7.49375 13.9834 7.95274 13.7003C8.41172 13.4172 8.94076 13.2681 9.48002 13.27C9.77826 13.2683 10.075 13.3121 10.36 13.4V9.9C10.0284 9.85892 9.69413 9.84221 9.36002 9.85C8.12933 9.88288 6.93494 10.2739 5.92311 10.9753C4.91127 11.6766 4.12591 12.6578 3.6632 13.7986C3.20049 14.9395 3.0805 16.1905 3.31794 17.3986C3.55538 18.6066 4.13993 19.7191 5.00002 20.6C5.88151 21.4962 7.00952 22.1101 8.24072 22.3638C9.47192 22.6175 10.7507 22.4994 11.9147 22.0246C13.0786 21.5498 14.0752 20.7397 14.7777 19.6973C15.4801 18.6548 15.8569 17.4271 15.86 16.17V9.17C17.2515 10.1639 18.92 10.6956 20.63 10.69V7.29C20.2941 7.29138 19.959 7.25787 19.63 7.19H19.59Z" fill="#2F313F"/>
</svg>
